<svg width="119" height="28" viewBox="0 0 119 28" fill="none" xmlns="http://www.w3.org/2000/svg">
<g clip-path="url(#clip0_2411_14092)">
<path d="M24.6886 16.1369C27.1192 16.1369 30.6406 15.6333 30.6406 12.7419C30.6406 12.5164 30.6347 12.2967 30.5803 12.0769L29.1317 5.78472C28.7953 4.40222 28.5036 3.77222 26.0711 2.55694C24.187 1.5925 20.0783 0 18.8631 0C17.7314 0 17.397 1.46611 16.0553 1.46611C14.7136 1.46611 13.792 0.377222 12.5767 0.377222C11.3614 0.377222 10.6478 1.17444 10.0625 2.80778C10.0625 2.80778 8.42723 7.41806 8.21723 8.08889C8.17445 8.21528 8.17445 8.35528 8.17445 8.46611C8.17445 10.2589 15.2308 16.1369 24.6906 16.1369M31.0197 13.9144C31.3561 15.5069 31.3561 15.6742 31.3561 15.8842C31.3561 18.6083 28.2956 20.1172 24.2725 20.1172C15.1764 20.1172 7.21195 14.7933 7.21195 11.2739C7.21195 10.7294 7.33834 10.2258 7.50556 9.84861C4.23501 10.0158 0.00195312 10.6031 0.00195312 14.3344C0.00195312 20.4536 14.5056 28 25.9895 28C34.792 28 37.0125 24.0178 37.0125 20.8736C37.0125 18.4003 34.8756 15.5925 31.0178 13.9144" fill="black"/>
<path d="M112.63 17.9471C112.63 20.2571 114.02 21.3829 116.556 21.3829C117.17 21.3829 118.232 21.2391 118.868 21.0563V18.3768C118.316 18.5402 117.907 18.6024 117.374 18.6024C116.332 18.6024 115.943 18.2757 115.943 17.2938V13.1832H118.969V10.4221H115.943V6.926L112.63 7.64156V10.4221H110.442V13.1832H112.63V17.9471ZM102.336 18.0093C102.336 17.2938 103.052 16.9457 104.135 16.9457C104.85 16.9457 105.506 17.0488 106.099 17.1907V18.581C105.484 18.9291 104.769 19.0924 104.034 19.0924C102.97 19.0924 102.336 18.6841 102.336 18.0093ZM103.347 21.4238C104.512 21.4238 105.453 21.1788 106.332 20.5857V21.241H109.604V14.3091C109.604 11.6704 107.825 10.2199 104.86 10.2199C103.203 10.2199 101.568 10.6088 99.8083 11.406L100.994 13.8404C102.262 13.3096 103.326 12.981 104.267 12.981C105.638 12.981 106.332 13.5118 106.332 14.5968V15.1277C105.554 14.9235 104.737 14.8204 103.878 14.8204C101.097 14.8204 99.4194 15.9852 99.4194 18.0716C99.4194 19.9732 100.932 21.4257 103.345 21.4257M85.3708 21.241H88.8883V15.6371H94.778V21.241H98.2955V6.926H94.778V12.4268H88.8883V6.926H85.3708V21.241ZM71.9677 15.8218C71.9677 14.2682 73.1947 13.0821 74.8105 13.0821C75.7108 13.0821 76.5275 13.3893 77.1011 13.9202V17.7041C76.508 18.2757 75.7302 18.5635 74.8105 18.5635C73.2161 18.5635 71.9677 17.3774 71.9677 15.8238M77.1419 21.2429H80.4144V6.21045L77.1011 6.926V10.9957C76.2825 10.5252 75.3433 10.2802 74.34 10.2802C71.19 10.2802 68.7166 12.7146 68.7166 15.8218C68.7166 18.9291 71.1511 21.3849 74.2388 21.3849C75.3025 21.3849 76.3038 21.0582 77.1419 20.4438V21.241V21.2429ZM62.1327 12.9402C63.175 12.9402 64.0558 13.6149 64.4019 14.6571H59.883C60.2097 13.5741 61.0283 12.9402 62.1327 12.9402ZM56.5502 15.8432C56.5502 18.9932 59.1266 21.4471 62.44 21.4471C64.26 21.4471 65.59 20.9571 66.9588 19.8118L64.7713 17.8693C64.26 18.4002 63.5036 18.6879 62.6033 18.6879C61.3763 18.6879 60.375 18.0132 59.9452 16.971H67.655V16.1524C67.655 12.7166 65.345 10.2432 62.195 10.2432C59.045 10.2432 56.5502 12.6971 56.5502 15.8471M50.8452 9.93795C52.01 9.93795 52.6652 10.6749 52.6652 11.5538C52.6652 12.4327 52.01 13.1696 50.8452 13.1696H47.3686V9.93795H50.8452ZM43.8511 21.2468H47.3686V16.0318H50.048L52.7469 21.2468H56.6727L53.5227 15.5204C55.2202 14.7835 56.2216 13.2513 56.2216 11.4916C56.2216 8.91517 54.1975 6.93184 51.17 6.93184H43.8491V21.2468H43.8511Z" fill="black"/>
</g>
<defs>
<clipPath id="clip0_2411_14092">
<rect width="118.969" height="28" fill="white"/>
</clipPath>
</defs>
</svg>
